<?xml version="1.0" encoding="utf-8"?>
<svg viewBox="226.271 227.535 29.094 32.002" xmlns="http://www.w3.org/2000/svg">
  <path d="M 253.908 233.354 L 248.09 233.354 L 248.09 231.899 C 248.09 230.735 247.625 229.63 246.81 228.815 C 245.995 228 244.875 227.535 243.726 227.535 L 237.908 227.535 C 236.744 227.535 235.639 228 234.824 228.815 C 234.009 229.63 233.544 230.735 233.544 231.899 L 233.544 233.354 L 227.726 233.354 C 226.926 233.354 226.271 234.009 226.271 234.809 C 226.271 235.609 226.926 236.264 227.726 236.264 L 229.181 236.264 L 229.181 255.173 C 229.181 256.337 229.646 257.442 230.461 258.257 C 231.276 259.072 232.396 259.537 233.545 259.537 L 248.091 259.537 C 249.255 259.537 250.36 259.072 251.175 258.257 C 251.99 257.442 252.455 256.337 252.455 255.173 L 252.455 236.264 L 253.91 236.264 C 254.71 236.264 255.365 235.609 255.365 234.809 C 255.365 234.009 254.71 233.354 253.91 233.354 Z M 236.453 231.9 C 236.453 231.507 236.613 231.144 236.875 230.867 C 237.151 230.591 237.515 230.445 237.908 230.445 L 243.726 230.445 C 244.119 230.445 244.482 230.59 244.759 230.867 C 245.036 231.144 245.181 231.507 245.181 231.9 L 245.181 233.355 L 236.454 233.355 L 236.454 231.9 Z M 249.544 255.172 C 249.544 255.565 249.399 255.928 249.122 256.205 C 248.845 256.482 248.482 256.627 248.089 256.627 L 233.543 256.627 C 233.15 256.627 232.787 256.482 232.51 256.205 C 232.233 255.928 232.088 255.565 232.088 255.172 L 232.088 236.263 L 249.543 236.263 L 249.543 255.172 Z M 237.908 252.263 C 238.708 252.263 239.363 251.608 239.363 250.808 L 239.363 242.081 C 239.363 241.281 238.708 240.626 237.908 240.626 C 237.108 240.626 236.453 241.281 236.453 242.081 L 236.453 250.808 C 236.453 251.608 237.108 252.263 237.908 252.263 Z M 245.181 250.809 C 245.181 251.609 244.526 252.264 243.726 252.264 C 242.926 252.264 242.271 251.609 242.271 250.809 L 242.271 242.082 C 242.271 241.282 242.926 240.627 243.726 240.627 C 244.526 240.627 245.181 241.282 245.181 242.082 L 245.181 250.809 Z" style="fill: rgb(30, 164, 206);"/>
</svg>